<svg width="81" height="24" viewBox="0 0 81 24" fill="none" xmlns="http://www.w3.org/2000/svg">
<path fill-rule="evenodd" clip-rule="evenodd" d="M35.7056 8.87453L39.4513 8.48084L39.2035 9.42706L36.4305 9.71852L33.6445 20.3532L29.4861 20.7903L29.734 19.8441L32.9196 19.5093L35.7056 8.87453ZM63.4987 16.2953L68.1294 6.35958L69.031 6.45284L64.0415 17.1584L57.54 17.8417L57.7878 16.8955L63.4987 16.2953ZM77.6735 9.74127C78.072 8.20604 77.9394 7.22474 77.4059 6.67608L78.2464 5.9099C78.9957 6.68048 79.0831 7.97194 78.6405 9.66121L78.6346 9.68369L77.8659 11.8418L71.173 12.5453L71.4209 11.599L77.2292 10.9886L77.6735 9.74127ZM7.24065 14.4811L8.38316 14.361L10.2417 21.8928L13.5757 21.5424L15.2311 15.2233L16.2039 15.1211L14.3006 22.3864L9.38296 22.9032L7.73251 16.2146L5.88395 23.271L1.23918 23.7592L3.14249 16.4939L4.11529 16.3916L2.45987 22.7107L5.15903 22.427L7.24065 14.4811ZM44.7811 11.5915C45.1805 11.4377 45.5513 11.3254 45.8901 11.26L45.7355 12.1923C45.4826 12.2411 45.1858 12.329 44.8415 12.4615C44.4871 12.598 44.1436 12.7453 43.8108 12.9033C43.6042 13.0046 43.4123 13.0994 43.2348 13.1876L41.576 19.5196L37.0756 19.9926L38.5216 14.473L39.4944 14.3708L38.2963 18.9441L40.8511 18.6756L42.4196 12.6884L42.7324 12.5312C42.9969 12.3983 43.2988 12.2486 43.638 12.0822L43.6421 12.0802L43.6462 12.0783C44.0149 11.903 44.3932 11.7408 44.7811 11.5915ZM11.6824 16.9442L11.3523 16.9789L11.6002 16.0327L11.9303 15.998L11.6824 16.9442ZM68.4563 11.4731C68.1612 12.5996 68.0724 13.4835 68.1648 14.1448C68.2667 14.7775 68.5797 15.2113 69.1041 15.4668C69.642 15.7136 70.4712 15.7966 71.6373 15.674C72.1712 15.6179 72.7409 15.5328 73.3466 15.4182C73.957 15.3028 74.5424 15.1772 75.103 15.0417C75.4688 14.9532 75.7923 14.8722 76.074 14.7984L76.5035 12.9068L77.4843 12.7717L76.8708 15.4737L76.4421 15.5931C76.0575 15.7002 75.577 15.8233 75.0022 15.9623C74.4205 16.1029 73.8157 16.2325 73.1878 16.3513C72.5552 16.4709 71.9556 16.5607 71.3894 16.6203C70.137 16.7519 69.1363 16.6765 68.433 16.3524L68.4302 16.3511L68.4274 16.3497C67.7204 16.0067 67.3009 15.4133 67.1694 14.5904L67.1689 14.5872L67.1684 14.584C67.0559 13.7842 67.1693 12.7747 67.4835 11.5753L68.4563 11.4731ZM16.6592 18.7124C16.3834 19.7652 16.4756 20.4174 16.8126 20.7827C17.1554 21.1545 17.8193 21.3305 18.9209 21.2147C19.3157 21.1732 19.7129 21.0954 20.1131 20.9813C20.5273 20.8632 20.9081 20.737 21.256 20.6034C21.6197 20.4516 21.903 20.324 22.111 20.2201L22.4761 20.0377L22.6488 20.2728C22.6988 20.3408 22.8126 20.4344 23.0276 20.5427C23.1975 20.615 23.4487 20.6497 23.8059 20.6235L23.8299 20.6218L23.853 20.6223C24.0045 20.6262 24.2535 20.6027 24.6199 20.539L24.6291 20.5374L24.6381 20.5361C25.0003 20.4855 25.3435 20.4243 25.668 20.353L25.5427 21.2793C25.1888 21.357 24.8197 21.4227 24.4354 21.4766C24.0617 21.5413 23.7449 21.5776 23.5027 21.5742C23.0564 21.6047 22.6686 21.5649 22.3638 21.4318L22.3564 21.4285L22.3492 21.4249C22.2059 21.3533 22.0766 21.2761 21.9684 21.1912C21.7838 21.2756 21.575 21.3662 21.3432 21.4629L21.3343 21.4666L21.3253 21.4701C20.9319 21.6215 20.5102 21.761 20.0608 21.8891C19.5937 22.0223 19.131 22.1128 18.6731 22.161C17.4367 22.2909 16.4942 22.1154 15.9622 21.5384C15.4242 20.9551 15.3734 20.0092 15.6864 18.8146L16.6592 18.7124ZM45.9508 15.6337C45.675 16.6865 45.7672 17.3387 46.1042 17.7041C46.447 18.0758 47.1109 18.2519 48.2125 18.1361C48.6073 18.0946 49.0045 18.0167 49.4046 17.9026C49.8189 17.7845 50.1997 17.6584 50.5476 17.5248C50.9113 17.3729 51.1946 17.2454 51.4026 17.1415L51.7677 16.959L51.9404 17.1941C51.9904 17.2622 52.1042 17.3558 52.3192 17.4641C52.4891 17.5363 52.7403 17.571 53.0975 17.5448L53.1214 17.5431L53.1446 17.5437C53.2961 17.5475 53.5451 17.524 53.9115 17.4603L53.9206 17.4587L53.9297 17.4574C54.2919 17.4068 54.6351 17.3457 54.9596 17.2744L54.8343 18.2006C54.4804 18.2783 54.1113 18.344 53.727 18.398C53.3533 18.4626 53.0365 18.499 52.7942 18.4956C52.348 18.526 51.9602 18.4863 51.6554 18.3531L51.648 18.3499L51.6408 18.3463C51.4975 18.2746 51.3682 18.1974 51.26 18.1125C51.0754 18.1969 50.8666 18.2875 50.6348 18.3842L50.6259 18.3879L50.6169 18.3914C50.2235 18.5428 49.8017 18.6823 49.3524 18.8104C48.8853 18.9436 48.4226 19.0342 47.9646 19.0823C46.7283 19.2122 45.7858 19.0368 45.2538 18.4598C44.7158 17.8764 44.665 16.9305 44.978 15.736L45.9508 15.6337Z" fill="#300219"/>
<path d="M0.0631026 21.4486L3.62183 7.86426L7.74763 7.43062L9.68986 14.7195L10.0199 14.6848L12.0385 6.97963L15.7104 6.59369L12.1517 20.1781L8.0259 20.6117L6.16738 13.0799L5.81668 13.1167L3.73507 21.0627L0.0631026 21.4486Z" fill="#F4F6FF"/>
<path d="M17.0106 19.9015C15.8416 20.0244 15.0384 19.8486 14.601 19.3743C14.1635 18.8999 14.092 18.1009 14.3864 16.9772C14.5966 16.1746 14.9091 15.5433 15.3238 15.0835C15.7523 14.6222 16.2849 14.2735 16.9219 14.0374C17.5588 13.8014 18.2951 13.6199 19.1308 13.4931L21.2511 13.1336L21.3667 12.6922C21.4543 12.3577 21.4056 12.1352 21.2206 12.0246C21.0494 11.9125 20.7712 11.8767 20.3862 11.9171C19.9736 11.9605 19.5025 12.023 18.9729 12.1047C18.4433 12.1864 17.9257 12.2733 17.4201 12.3655C16.9144 12.4577 16.4707 12.5433 16.0889 12.6225L16.6113 10.2455C17.0209 10.1114 17.4993 9.97006 18.0464 9.8215C18.6073 9.67148 19.1835 9.53937 19.7752 9.42515C20.3703 9.29756 20.9223 9.20702 21.4311 9.15354C22.3526 9.05669 23.1171 9.0739 23.7246 9.20518C24.3459 9.335 24.7637 9.62933 24.9778 10.0881C25.2057 10.5455 25.2023 11.2223 24.9675 12.1186L23.8531 16.3725C23.8628 16.4885 23.9259 16.5795 24.0424 16.6453C24.1727 16.7096 24.3168 16.7465 24.4748 16.7559L23.8189 19.0298C23.4784 19.1047 23.1207 19.1683 22.7458 19.2207C22.3675 19.2865 22.0787 19.3168 21.8794 19.3117C21.4703 19.3417 21.1458 19.3043 20.9058 19.1994C20.6693 19.0812 20.5067 18.9617 20.4179 18.8409C20.1871 18.9563 19.884 19.0922 19.5087 19.2487C19.1368 19.3919 18.7341 19.5252 18.3005 19.6489C17.8669 19.7725 17.4369 19.8567 17.0106 19.9015ZM18.5596 17.3581C18.7659 17.3364 18.9705 17.2954 19.1736 17.2351C19.3939 17.1599 19.6022 17.0794 19.7985 16.9938C20.0086 16.9066 20.1756 16.8305 20.2996 16.7655L20.7307 15.1201L19.188 15.4188C18.8509 15.4803 18.5771 15.6066 18.3665 15.7979C18.1731 15.9743 18.0379 16.2097 17.9608 16.5039C17.8837 16.7982 17.8912 17.0251 17.9831 17.1846C18.0786 17.3306 18.2708 17.3885 18.5596 17.3581Z" fill="#F4F6FF"/>
<path d="M27.8236 18.5309L30.6096 7.89614L27.2265 8.25173L27.9992 5.30209L38.3137 4.21799L37.541 7.16763L34.2816 7.5102L31.4956 18.1449L27.8236 18.5309Z" fill="#F4F6FF"/>
<path d="M35.8996 17.6821L38.5436 7.5891L42.0712 7.21833L41.7873 8.30187C42.0529 8.10484 42.3616 7.89679 42.7132 7.67771C43.0821 7.44381 43.4577 7.23522 43.84 7.05193C44.2224 6.86865 44.5701 6.74104 44.8832 6.66911L44.0264 9.93979C43.7306 9.9969 43.3967 10.097 43.0249 10.2402C42.653 10.3833 42.2914 10.5384 41.9401 10.7054C41.6025 10.871 41.3027 11.0196 41.0409 11.1512L39.4271 17.3113L35.8996 17.6821Z" fill="#F4F6FF"/>
<path d="M46.3022 16.8229C45.1332 16.9457 44.33 16.77 43.8925 16.2956C43.4551 15.8212 43.3836 15.0222 43.6779 13.8985C43.8882 13.0959 44.2007 12.4647 44.6154 12.0048C45.0438 11.5435 45.5765 11.1948 46.2135 10.9588C46.8504 10.7227 47.5867 10.5412 48.4223 10.4144L50.5427 10.0549L50.6583 9.61349C50.7459 9.27907 50.6972 9.05654 50.5122 8.94589C50.341 8.8338 50.0628 8.798 49.6778 8.83847C49.2652 8.88183 48.7941 8.94436 48.2645 9.02604C47.7349 9.10772 47.2172 9.19464 46.7116 9.28681C46.206 9.37898 45.7623 9.46464 45.3805 9.5438L45.9029 7.16685C46.3125 7.03273 46.7908 6.89139 47.338 6.74283C47.8989 6.59281 48.4751 6.4607 49.0667 6.34648C49.6619 6.21889 50.2139 6.12835 50.7227 6.07487C51.6441 5.97802 52.4086 5.99523 53.0162 6.12651C53.6375 6.25634 54.0553 6.55066 54.2694 7.00947C54.4973 7.46684 54.4939 8.14365 54.2591 9.03991L53.1447 13.2938C53.1544 13.4099 53.2175 13.5008 53.334 13.5666C53.4643 13.631 53.6084 13.6678 53.7664 13.6773L53.1105 15.9512C52.77 16.026 52.4123 16.0896 52.0374 16.142C51.6591 16.2078 51.3703 16.2381 51.171 16.2331C50.7619 16.2631 50.4374 16.2256 50.1974 16.1208C49.9609 16.0025 49.7983 15.883 49.7095 15.7623C49.4787 15.8776 49.1756 16.0135 48.8003 16.17C48.4284 16.3132 48.0257 16.4466 47.5921 16.5702C47.1585 16.6938 46.7285 16.778 46.3022 16.8229ZM47.8511 14.2795C48.0574 14.2578 48.2621 14.2168 48.4652 14.1564C48.6855 14.0812 48.8938 14.0008 49.0901 13.9151C49.3001 13.828 49.4672 13.7519 49.5912 13.6868L50.0223 12.0414L48.4796 12.3402C48.1425 12.4016 47.8687 12.528 47.6581 12.7192C47.4647 12.8956 47.3295 13.131 47.2524 13.4253C47.1753 13.7196 47.1828 13.9464 47.2747 14.1059C47.3702 14.252 47.5623 14.3098 47.8511 14.2795Z" fill="#F4F6FF"/>
<path d="M55.8775 15.5823L56.3555 5.71699L60.1306 5.32021L59.5637 12.385L60.0176 12.3373L63.225 4.99498L66.7938 4.61989L61.9837 14.9405L55.8775 15.5823Z" fill="#F4F6FF"/>
<path d="M69.7269 14.3608C68.5167 14.488 67.6013 14.4086 66.9808 14.1226C66.3637 13.8232 65.997 13.3089 65.8804 12.5796C65.7776 11.849 65.8786 10.9017 66.1835 9.73791C66.5024 8.5206 66.9458 7.49184 67.5136 6.65164C68.0952 5.80999 68.8099 5.14948 69.6577 4.67012C70.5054 4.19075 71.5001 3.89108 72.6415 3.77111C74.2781 3.5991 75.4108 3.84428 76.0398 4.50667C76.6824 5.16761 76.7917 6.30739 76.3677 7.92601L75.7611 9.62886L69.5105 10.2858C69.3841 10.8195 69.4027 11.2078 69.5664 11.4507C69.7337 11.6803 70.1061 11.7648 70.6837 11.704C71.1238 11.6578 71.6137 11.5998 72.1536 11.53C72.7107 11.4455 73.261 11.3616 73.8043 11.2785C74.3614 11.1939 74.8292 11.1187 75.2075 11.053L74.6855 13.3518C74.3104 13.4563 73.8373 13.5776 73.2662 13.7156C72.695 13.8537 72.0999 13.9813 71.4808 14.0984C70.8616 14.2155 70.277 14.303 69.7269 14.3608ZM70.0208 8.26137L72.9089 7.95782C73.0876 7.2756 73.102 6.81228 72.952 6.56786C72.8056 6.31007 72.4848 6.2072 71.9897 6.25923C71.4809 6.31271 71.071 6.49889 70.7601 6.81776C70.4527 7.12325 70.2063 7.60445 70.0208 8.26137Z" fill="#F4F6FF"/>
</svg>
